<svg xmlns="http://www.w3.org/2000/svg" viewBox="0 0 24 24" id="amazon"><path fill="#303c42" d="M18.933 13.249c-.01-.016-.933-1.62-.933-2.749V6.438C18 3.033 16.131 1 13 1 9.523 1 7.62 2.398 7.01 5.4a.5.5 0 0 0 .408.593l3 .5a.494.494 0 0 0 .569-.382C11.168 5.322 11.606 5 12.5 5c.671 0 1.355.195 1.48 1.537-1.016.087-3.348.351-4.7 1.014C7.409 8.469 6.5 9.924 6.5 12c0 2.393 1.607 4 4 4 2.248 0 3.424-.651 4.028-1.246a7.75 7.75 0 0 0 1.757 1.197.496.496 0 0 0 .569-.097l2-2a.502.502 0 0 0 .079-.605zM12 12.5c-.663 0-1-.336-1-1 0-1.548 1.801-1.912 2.977-1.984-.202 2.179-1.649 2.98-1.977 2.984z"></path><path fill="#5c6671" d="M17 10.5V6.438C17 4.781 16.48 2 13 2c-2.791 0-4.282.932-4.889 3.095l2.042.34C10.446 4.704 11.093 4 12.5 4c1.141 0 2.5.521 2.5 3a.5.5 0 0 1-.472.499c-.032.002-3.263.192-4.809.95C8.205 9.192 7.5 10.32 7.5 12c0 1.45.788 3 3 3 2.514 0 3.338-.885 3.576-1.265a.5.5 0 0 1 .809-.054c.457.552 1.134.983 1.523 1.204l1.475-1.476C17.577 12.813 17 11.551 17 10.5zm-5 2c-.663 0-1-.336-1-1 0-1.548 1.801-1.912 2.977-1.984-.202 2.179-1.649 2.98-1.977 2.984z"></path><path fill="#303c42" d="M14.5 8.5c-2.817 0-4.5 1.122-4.5 3 0 1.476 1.077 2 2 2 .854 0 3-1.338 3-4.5a.5.5 0 0 0-.5-.5zm-2.5 4c-.663 0-1-.336-1-1 0-1.548 1.801-1.912 2.977-1.984-.202 2.179-1.649 2.98-1.977 2.984zm9.902 6.204a.498.498 0 0 0-.544-.183C21.308 18.535 16.311 20 12 20 7.406 20 2.146 18.439.854 17.146a.5.5 0 0 0-.731.682C.306 18.039 4.7 23 12 23c7.339 0 9.813-3.57 9.915-3.722a.5.5 0 0 0-.013-.574z"></path><path fill="#ffa726" d="M12 22c-3.208 0-5.847-1.054-7.748-2.178C6.606 20.524 9.503 21 12 21c2.806 0 5.814-.577 7.713-1.021C18.377 20.904 15.958 22 12 22z"></path><path fill="#303c42" d="M22 16.5c-1.286 0-2.624.512-2.681.534a.5.5 0 0 0 .361.933c.012-.006 1.218-.467 2.32-.467 1 0 1 .254 1 .5 0 .708-.852 2.023-1.389 2.685a.5.5 0 1 0 .777.63C22.553 21.112 24 19.293 24 18c0-1.5-1.505-1.5-2-1.5z"></path><linearGradient id="a" x1="4.1" x2="24.266" y1="8.597" y2="18" gradientUnits="userSpaceOnUse"><stop offset="0" stop-color="#fff" stop-opacity=".2"></stop><stop offset="1" stop-color="#fff" stop-opacity="0"></stop></linearGradient><path fill="url(#a)" d="M6.5 12c0 2.393 1.607 4 4 4 2.248 0 3.424-.651 4.028-1.246a7.75 7.75 0 0 0 1.757 1.197.496.496 0 0 0 .569-.097l2-2a.501.501 0 0 0 .079-.604c-.01-.017-.933-1.621-.933-2.75V6.438C18 3.033 16.131 1 13 1 9.523 1 7.62 2.398 7.01 5.4a.5.5 0 0 0 .408.593l3 .5a.494.494 0 0 0 .569-.382C11.168 5.322 11.606 5 12.5 5c.671 0 1.355.195 1.48 1.537-1.016.087-3.348.351-4.7 1.014C7.409 8.469 6.5 9.924 6.5 12zm7.477-2.484c-.201 2.179-1.648 2.98-1.977 2.984-.663 0-1-.336-1-1 0-1.548 1.801-1.912 2.977-1.984zm7.925 9.188a.498.498 0 0 0-.544-.183C21.308 18.535 16.311 20 12 20 7.406 20 2.146 18.439.854 17.146a.5.5 0 0 0-.731.682C.306 18.039 4.7 23 12 23c7.339 0 9.813-3.57 9.915-3.722a.5.5 0 0 0-.013-.574zM22 16.5c-1.286 0-2.624.512-2.681.534a.5.5 0 0 0 .361.933c.012-.006 1.218-.467 2.32-.467 1 0 1 .254 1 .5 0 .708-.852 2.023-1.389 2.685a.5.5 0 1 0 .777.63C22.553 21.112 24 19.293 24 18c0-1.5-1.505-1.5-2-1.5z"></path></svg>